<?xml version="1.0" encoding="utf-8"?>
<!-- Generator: Adobe Illustrator 24.1.1, SVG Export Plug-In . SVG Version: 6.00 Build 0)  -->
<svg version="1.1" id="Layer_1" xmlns="http://www.w3.org/2000/svg" xmlns:xlink="http://www.w3.org/1999/xlink" x="0px" y="0px"
	 viewBox="0 0 22 22" style="enable-background:new 0 0 22 22;" xml:space="preserve">
<style type="text/css">
	.st0{fill-rule:evenodd;clip-rule:evenodd;fill:#FFFFFF;}
</style>
<desc>Created with Sketch.</desc>
<g id="Desktop">
	<g id="Mobile-Portrait-Copy" transform="translate(-966.000000, -29.000000)">
		<g id="Group-6" transform="translate(959.000000, 20.000000)">
			<path id="send" class="st0" d="M29,9.5c0-0.2-0.1-0.3-0.2-0.4c-0.2-0.1-0.3-0.1-0.5,0L7.2,21C7.1,21.1,7,21.2,7,21.4
				c0,0.2,0.1,0.3,0.3,0.4l4.6,2.3c0.1,0,0.1,0.1,0.2,0.1c0.1,0,0.2,0,0.3-0.1l13-11.2l-10,12.9c-0.1,0.1-0.1,0.2-0.1,0.3v4.6
				c0,0.2,0.1,0.4,0.3,0.4c0.1,0,0.1,0,0.2,0c0.2,0,0.3-0.1,0.4-0.2l2.5-3.4l7,3.5c0.1,0.1,0.3,0.1,0.4,0c0.2-0.1,0.2-0.2,0.3-0.4
				L29,9.5z"/>
		</g>
	</g>
</g>
</svg>
